<?xml version="1.0" encoding="UTF-8" standalone="no"?>
<svg
   width="126.87024mm"
   height="56.023998mm"
   version="1.1"
   viewBox="0 0 126.87024 56.023998"
   id="svg2529"
   sodipodi:docname="en_layout_top_s_num.svg"
   inkscape:version="1.2.2 (b0a8486541, 2022-12-01)"
   xmlns:inkscape="http://www.inkscape.org/namespaces/inkscape"
   xmlns:sodipodi="http://sodipodi.sourceforge.net/DTD/sodipodi-0.dtd"
   xmlns="http://www.w3.org/2000/svg"
   xmlns:svg="http://www.w3.org/2000/svg">
  <defs
     id="defs2533" />
  <sodipodi:namedview
     id="namedview2531"
     pagecolor="#ffffff"
     bordercolor="#000000"
     borderopacity="0.25"
     inkscape:showpageshadow="2"
     inkscape:pageopacity="0.0"
     inkscape:pagecheckerboard="0"
     inkscape:deskcolor="#d1d1d1"
     inkscape:document-units="mm"
     showgrid="false"
     inkscape:zoom="1.0570734"
     inkscape:cx="251.16515"
     inkscape:cy="99.330851"
     inkscape:window-width="1920"
     inkscape:window-height="1011"
     inkscape:window-x="0"
     inkscape:window-y="32"
     inkscape:window-maximized="1"
     inkscape:current-layer="ls_n" />
  <g
     id="ls_n"
     class="pressed" 
     transform="translate(-1.9769547,-24.037142)">
    <path
       d="m 2.5271947,40.316142 c -0.1662,0 -0.30024,0.13353 -0.30024,0.29973 v 10.229 c 0,2.77 2.2302,4.9997 5.0002,4.9997 2.77,0 5.0002003,-2.2297 5.0002003,-4.9997 v -10.229 c 0,-0.1662 -0.13404,-0.29973 -0.30024,-0.29973 z"
       fill="#DAE0F5"
       fill-opacity="0"
       stroke="#506477"
       stroke-opacity="1"
       stroke-width="0.2"
       id="path2305-3" />
  </g>
  <g
     id="lt_n"
     class="pressed" 
     transform="translate(-10.54976,-28.502)">
    <path
       d="m 23.717,28.753 h 9.4 c 0.1662,0 0.3,0.1338 0.3,0.3 v 14.4 c 0,0.1662 -0.1338,0.3 -0.3,0.3 h -9.4 c -0.1662,0 -0.3,-0.1338 -0.3,-0.3 v -14.4 c 0,-0.1662 0.1338,-0.3 0.3,-0.3 z"
       fill="#DAE0F5"
       fill-opacity="0"
       stroke="#506477"
       stroke-opacity="1"
       stroke-width="0.2"
       id="path2302" />
  </g>
  <g
     id="lk_n"
     class="pressed" 
     transform="translate(-10.54976,-28.502)">
    <path
       d="m 23.717,44.781 c -0.1662,0 -0.30024,0.13353 -0.30024,0.29973 v 10.229 c 0,2.77 2.2302,4.9997 5.0002,4.9997 2.77,0 5.0002,-2.2297 5.0002,-4.9997 v -10.229 c 0,-0.1662 -0.13404,-0.29973 -0.30024,-0.29973 z"
       fill="#DAE0F5"
       fill-opacity="0"
       stroke="#506477"
       stroke-opacity="1"
       stroke-width="0.2"
       id="path2305" />
  </g>
  <g
     id="lp_n"
     class="pressed" 
     transform="translate(-10.54976,-28.502)">
    <path
       d="m 36.333,28.753 h 9.4 c 0.1662,0 0.3,0.1338 0.3,0.3 v 14.4 c 0,0.1662 -0.1338,0.3 -0.3,0.3 h -9.4 c -0.1662,0 -0.3,-0.1338 -0.3,-0.3 v -14.4 c 0,-0.1662 0.1338,-0.3 0.3,-0.3 z"
       fill="#DAE0F5"
       fill-opacity="0"
       stroke="#506477"
       stroke-opacity="1"
       stroke-width="0.2"
       id="path2308" />
  </g>
  <g
     id="lw_n"
     class="pressed" 
     transform="translate(-10.54976,-28.502)">
    <path
       d="m 36.334,44.781 c -0.1662,0 -0.30024,0.13353 -0.30024,0.29973 v 10.229 c 0,2.77 2.2302,4.9997 5.0002,4.9997 2.77,0 5.0002,-2.2297 5.0002,-4.9997 v -10.229 c 0,-0.1662 -0.13404,-0.29973 -0.30024,-0.29973 z"
       fill="#DAE0F5"
       fill-opacity="0"
       stroke="#506477"
       stroke-opacity="1"
       stroke-width="0.2"
       id="path2311" />
  </g>
  <g
     id="lh_n"
     class="pressed" 
     transform="translate(-10.54976,-28.502)">
    <path
       d="m 48.95,28.753 h 9.4 c 0.1662,0 0.3,0.1338 0.3,0.3 v 14.4 c 0,0.1662 -0.1338,0.3 -0.3,0.3 h -9.4 c -0.1662,0 -0.3,-0.1338 -0.3,-0.3 v -14.4 c 0,-0.1662 0.1338,-0.3 0.3,-0.3 z"
       fill="#DAE0F5"
       fill-opacity="0"
       stroke="#506477"
       stroke-opacity="1"
       stroke-width="0.2"
       id="path2314" />
  </g>
  <g
     id="lr_n"
     class="pressed" 
     transform="translate(-10.54976,-28.502)">
    <path
       d="m 48.95,44.781 c -0.1662,0 -0.30024,0.13353 -0.30024,0.29973 v 10.229 c 0,2.77 2.2302,4.9997 5.0002,4.9997 2.77,0 5.0002,-2.2297 5.0002,-4.9997 v -10.229 c 0,-0.1662 -0.13404,-0.29973 -0.30024,-0.29973 z"
       fill="#DAE0F5"
       fill-opacity="0"
       stroke="#506477"
       stroke-opacity="1"
       stroke-width="0.2"
       id="path2317" />
  </g>
  <g
     id="star_n"
     class="pressed" 
     transform="translate(-10.54976,-28.502)">
    <path
       d="m 61.567,28.752 c -0.1662,0 -0.30024,0.13404 -0.30024,0.30024 v 26.258 c 0,2.77 2.2302,4.9997 5.0002,4.9997 2.6209,0 4.757,-1.9966 4.9795,-4.5579 h 2.7202 c 0.16621,0 0.29972,-0.13404 0.29972,-0.30024 v -26.4 c 0,-0.1662 -0.13352,-0.29972 -0.29972,-0.29972 z"
       fill="#DAE0F5"
       fill-opacity="0"
       stroke="#506477"
       stroke-opacity="1"
       stroke-width="0.2"
       id="path2320" />
  </g>
  <g
     id="rf_n"
     class="pressed" 
     transform="translate(-10.54976,-28.502)">
    <path
       d="m 75.596,28.753 h 9.4 c 0.1662,0 0.3,0.1338 0.3,0.3 v 14.4 c 0,0.1662 -0.1338,0.3 -0.3,0.3 h -9.4 c -0.1662,0 -0.3,-0.1338 -0.3,-0.3 v -14.4 c 0,-0.1662 0.1338,-0.3 0.3,-0.3 z"
       fill="#DAE0F5"
       fill-opacity="0"
       stroke="#506477"
       stroke-opacity="1"
       stroke-width="0.2"
       id="path2323" />
  </g>
  <g
     id="rr_n"
     class="pressed" 
     transform="translate(-10.54976,-28.502)">
    <path
       d="m 75.596,44.781 c -0.1662,0 -0.30024,0.13353 -0.30024,0.29973 v 10.229 c 0,2.77 2.2302,4.9997 5.0002,4.9997 2.77,0 5.0002,-2.2297 5.0002,-4.9997 v -10.229 c 0,-0.1662 -0.13404,-0.29973 -0.30024,-0.29973 z"
       fill="#DAE0F5"
       fill-opacity="0"
       stroke="#506477"
       stroke-opacity="1"
       stroke-width="0.2"
       id="path2326" />
  </g>
  <g
     id="rp_n"
     class="pressed" 
     transform="translate(-10.54976,-28.502)">
    <path
       d="m 88.212,28.753 h 9.4 c 0.1662,0 0.3,0.1338 0.3,0.3 v 14.4 c 0,0.1662 -0.1338,0.3 -0.3,0.3 h -9.4 c -0.1662,0 -0.3,-0.1338 -0.3,-0.3 v -14.4 c 0,-0.1662 0.1338,-0.3 0.3,-0.3 z"
       fill="#DAE0F5"
       fill-opacity="0"
       stroke="#506477"
       stroke-opacity="1"
       stroke-width="0.2"
       id="path2329" />
  </g>
  <g
     id="rb_n"
     class="pressed" 
     transform="translate(-10.54976,-28.502)">
    <path
       d="m 88.213,44.781 c -0.1662,0 -0.30024,0.13353 -0.30024,0.29973 v 10.229 c 0,2.77 2.2302,4.9997 5.0002,4.9997 2.77,0 5.0002,-2.2297 5.0002,-4.9997 v -10.229 c 0,-0.1662 -0.13404,-0.29973 -0.30024,-0.29973 z"
       fill="#DAE0F5"
       fill-opacity="0"
       stroke="#506477"
       stroke-opacity="1"
       stroke-width="0.2"
       id="path2332" />
  </g>
  <g
     id="rl_n"
     class="pressed" 
     transform="translate(-10.54976,-28.502)">
    <path
       d="m 100.83,28.753 h 9.4 c 0.1662,0 0.3,0.1338 0.3,0.3 v 14.4 c 0,0.1662 -0.1338,0.3 -0.3,0.3 h -9.4 c -0.1662,0 -0.3,-0.1338 -0.3,-0.3 v -14.4 c 0,-0.1662 0.1338,-0.3 0.3,-0.3 z"
       fill="#DAE0F5"
       fill-opacity="0"
       stroke="#506477"
       stroke-opacity="1"
       stroke-width="0.2"
       id="path2335" />
  </g>
  <g
     id="rg_n"
     class="pressed" 
     transform="translate(-10.54976,-28.502)">
    <path
       d="m 100.83,44.781 c -0.1662,0 -0.30024,0.13353 -0.30024,0.29973 v 10.229 c 0,2.77 2.2302,4.9997 5.0002,4.9997 2.77,0 5.0002,-2.2297 5.0002,-4.9997 v -10.229 c 0,-0.1662 -0.13404,-0.29973 -0.30024,-0.29973 z"
       fill="#DAE0F5"
       fill-opacity="0"
       stroke="#506477"
       stroke-opacity="1"
       stroke-width="0.2"
       id="path2338" />
  </g>
  <g
     id="rt_n"
     class="pressed" 
     transform="translate(-10.54976,-28.502)">
    <path
       d="m 113.45,28.753 h 9.4 c 0.1662,0 0.3,0.1338 0.3,0.3 v 14.4 c 0,0.1662 -0.1338,0.3 -0.3,0.3 h -9.4 c -0.1662,0 -0.3,-0.1338 -0.3,-0.3 v -14.4 c 0,-0.1662 0.1338,-0.3 0.3,-0.3 z"
       fill="#DAE0F5"
       fill-opacity="0"
       stroke="#506477"
       stroke-opacity="1"
       stroke-width="0.2"
       id="path2341" />
  </g>
  <g
     id="rs_n"
     class="pressed" 
     transform="translate(-10.54976,-28.502)">
    <path
       d="m 113.45,44.781 c -0.1662,0 -0.30024,0.13353 -0.30024,0.29973 v 10.229 c 0,2.77 2.2302,4.9997 5.0002,4.9997 2.77,0 5.0002,-2.2297 5.0002,-4.9997 v -10.229 c 0,-0.1662 -0.13404,-0.29973 -0.30024,-0.29973 z"
       fill="#DAE0F5"
       fill-opacity="0"
       stroke="#506477"
       stroke-opacity="1"
       stroke-width="0.2"
       id="path2344" />
  </g>
  <g
     id="rd_n"
     class="pressed" 
     transform="translate(-10.54976,-28.502)">
    <path
       d="m 124.47,28.753 h 12.4 c 0.1662,0 0.3,0.1338 0.3,0.3 v 14.4 c 0,0.1662 -0.1338,0.3 -0.3,0.3 h -12.4 c -0.1662,0 -0.3,-0.1338 -0.3,-0.3 v -14.4 c 0,-0.1662 0.1338,-0.3 0.3,-0.3 z"
       fill="#DAE0F5"
       fill-opacity="0"
       stroke="#506477"
       stroke-opacity="1"
       stroke-width="0.2"
       id="path2347" />
  </g>
  <g
     id="rz_n"
     class="pressed" 
     transform="translate(-10.54976,-28.502)">
    <path
       d="m 124.47,44.781 c -0.1662,0 -0.29972,0.13404 -0.29972,0.30024 v 10.4 c 0,0.1662 0.13352,0.29972 0.29972,0.29972 h 2.7218 c 0.23584,2.5475 2.3668,4.5289 4.978,4.5289 2.6937,0 4.8768,-2.1088 4.995,-4.7723 0.003,-0.0183 0.005,-0.037 0.005,-0.0563 v -10.4 c 0,-0.0727 -0.0255,-0.13939 -0.0682,-0.19121 -0.006,-0.007 -0.0125,-0.0146 -0.0191,-0.0212 -0.0203,-0.0204 -0.0437,-0.0378 -0.0692,-0.0517 -0.0147,-0.008 -0.0305,-0.0147 -0.0465,-0.0202 -0.002,-7.9e-4 -0.005,-0.002 -0.007,-0.003 -1.5e-4,-5e-5 -2.6e-4,5e-5 -5.3e-4,0 -0.0281,-0.009 -0.0579,-0.0134 -0.0889,-0.0134 z"
       fill="#DAE0F5"
       fill-opacity="0"
       stroke="#506477"
       stroke-opacity="1"
       stroke-width="0.2"
       id="path2350" />
  </g>
  <g
     id="la_n"
     class="pressed" 
     transform="translate(-10.54976,-28.502)">
    <path
       d="m 38.98,68.748 c -0.1662,0 -0.30024,0.13353 -0.30024,0.29973 v 10.229 c 0,2.77 2.2302,4.9997 5.0002,4.9997 2.77,0 5.0002,-2.2297 5.0002,-4.9997 v -10.229 c 0,-0.1662 -0.13404,-0.29973 -0.30024,-0.29973 z"
       fill="#DAE0F5"
       fill-opacity="0"
       stroke="#506477"
       stroke-opacity="1"
       stroke-width="0.2"
       id="path2353" />
  </g>
  <g
     id="lo_n"
     class="pressed" 
     transform="translate(-10.54976,-28.502)">
    <path
       d="m 51.596,68.748 c -0.1662,0 -0.30024,0.13353 -0.30024,0.29973 v 10.229 c 0,2.77 2.2302,4.9997 5.0002,4.9997 2.77,0 5.0002,-2.2297 5.0002,-4.9997 v -10.229 c 0,-0.1662 -0.13404,-0.29973 -0.30024,-0.29973 z"
       fill="#DAE0F5"
       fill-opacity="0"
       stroke="#506477"
       stroke-opacity="1"
       stroke-width="0.2"
       id="path2356" />
  </g>
  <g
     id="re_n"
     class="pressed" 
     transform="translate(-10.54976,-28.502)">
    <path
       d="m 72.95,68.748 c -0.1662,0 -0.30024,0.13353 -0.30024,0.29973 v 10.229 c 0,2.77 2.2302,4.9997 5.0002,4.9997 2.77,0 5.0002,-2.2297 5.0002,-4.9997 v -10.229 c 0,-0.1662 -0.13404,-0.29973 -0.30024,-0.29973 z"
       fill="#DAE0F5"
       fill-opacity="0"
       stroke="#506477"
       stroke-opacity="1"
       stroke-width="0.2"
       id="path2359" />
  </g>
  <g
     id="ru_n"
     class="pressed" 
     transform="translate(-10.54976,-28.502)">
    <path
       d="m 85.567,68.748 c -0.1662,0 -0.30024,0.13353 -0.30024,0.29973 v 10.229 c 0,2.77 2.2302,4.9997 5.0002,4.9997 2.77,0 5.0002,-2.2297 5.0002,-4.9997 v -10.229 c 0,-0.1662 -0.13404,-0.29973 -0.30024,-0.29973 z"
       fill="#DAE0F5"
       fill-opacity="0"
       stroke="#506477"
       stroke-opacity="1"
       stroke-width="0.2"
       id="path2362" />
  </g>
  <g
     id="num_n"
     class="pressed" 
     transform="translate(-10.54976,-28.502)">
    <path
       d="m 11.099955,28.753 h 9.4 c 0.1662,0 0.3,0.1338 0.3,0.3 v 14.4 c 0,0.1662 -0.1338,0.3 -0.3,0.3 h -9.4 c -0.1662,0 -0.3,-0.1338 -0.3,-0.3 v -14.4 c 0,-0.1662 0.1338,-0.3 0.3,-0.3 z"
       fill="#DAE0F5"
       fill-opacity="0"
       stroke="#506477"
       stroke-opacity="1"
       stroke-width="0.2"
       id="path2302-8" />
  </g>
  <g
     id="ls"
     class="notpressed" 
     transform="translate(-10.54976,-28.502)">
    <path
       d="m 11.1,44.781 c -0.1662,0 -0.30024,0.13353 -0.30024,0.29973 v 10.229 c 0,2.77 2.2302,4.9997 5.0002,4.9997 2.77,0 5.0002,-2.2297 5.0002,-4.9997 v -10.229 c 0,-0.1662 -0.13404,-0.29973 -0.30024,-0.29973 z"
       fill="#506477"
       stroke="#506477"
       stroke-width="0.5"
       id="path2382-7" />
    <g
       fill="#DAE0F5"
       stroke-width="0.26458"
       aria-label="S"
       id="g2372">
      <path
         d="m 15.78638,54.136185 q 0.23142,0 0.45156,-0.06773 0.22014,-0.06773 0.38382,-0.23142 0.16933,-0.16369 0.24836,-0.37818 0.08467,-0.22013 0.08467,-0.44591 0,-0.22013 -0.09031,-0.42898 -0.08467,-0.20884 -0.24271,-0.36689 -0.1524,-0.15804 -0.34431,-0.27093 -0.18627,-0.11289 -0.37818,-0.21449 h -0.0056 q -0.1524,-0.07338 -0.29351,-0.16369 -0.13547,-0.09596 -0.22013,-0.24271 -0.08467,-0.1524 -0.08467,-0.31609 0,-0.14111 0.05645,-0.27658 0.05644,-0.14111 0.18062,-0.21449 0.12982,-0.07338 0.27658,-0.07338 0.13547,0 0.254,0.06209 0.12418,0.06209 0.18062,0.18627 0.06209,0.12418 0.06209,0.25964 h 0.6096 q 0,-0.21449 -0.07902,-0.41769 -0.07338,-0.20884 -0.23142,-0.36124 -0.15804,-0.1524 -0.37253,-0.21449 -0.20884,-0.06209 -0.42333,-0.06209 -0.22578,0 -0.44027,0.06773 -0.21449,0.06773 -0.37253,0.23707 -0.15804,0.16369 -0.23142,0.37818 -0.07338,0.21449 -0.07338,0.44027 0,0.16933 0.0508,0.33867 0.0508,0.16369 0.1524,0.3048 0.1016,0.14111 0.23142,0.254 0.13547,0.11289 0.28222,0.2032 0.14676,0.08467 0.29916,0.16369 0.15804,0.07338 0.3048,0.16933 0.14676,0.09031 0.23707,0.24271 0.09596,0.1524 0.09596,0.32173 0,0.1524 -0.06773,0.29351 -0.06209,0.14111 -0.2032,0.20884 -0.13547,0.06773 -0.28787,0.06773 -0.13547,0 -0.27093,-0.05644 -0.12982,-0.05644 -0.2032,-0.18062 -0.06773,-0.12982 -0.06773,-0.26529 H 14.635 q 0,0.22013 0.08467,0.42898 0.08467,0.2032 0.24836,0.3556 0.16933,0.14676 0.38382,0.20884 0.21449,0.05644 0.43462,0.05644 z"
         id="path2370" />
    </g>
  </g>
  <g
     id="lt"
     class="notpressed" 
     transform="translate(-10.54976,-28.502)">
    <path
       d="m 23.717,28.753 h 9.4 c 0.1662,0 0.3,0.1338 0.3,0.3 v 14.4 c 0,0.1662 -0.1338,0.3 -0.3,0.3 h -9.4 c -0.1662,0 -0.3,-0.1338 -0.3,-0.3 v -14.4 c 0,-0.1662 0.1338,-0.3 0.3,-0.3 z"
       fill="#506477"
       stroke="#506477"
       stroke-width="0.5"
       id="path2375" />
    <g
       fill="#DAE0F5"
       stroke-width="0.26458"
       aria-label="T"
       id="g2379">
      <path
         d="m 28.109,38.327 h 0.6096 v -3.6012 h 0.86924 v -0.54751 h -2.3481 v 0.54751 h 0.86924 z"
         id="path2377" />
    </g>
  </g>
  <g
     id="lk"
     class="notpressed" 
     transform="translate(-10.54976,-28.502)">
    <path
       d="m 23.717,44.781 c -0.1662,0 -0.30024,0.13353 -0.30024,0.29973 v 10.229 c 0,2.77 2.2302,4.9997 5.0002,4.9997 2.77,0 5.0002,-2.2297 5.0002,-4.9997 v -10.229 c 0,-0.1662 -0.13404,-0.29973 -0.30024,-0.29973 z"
       fill="#506477"
       stroke="#506477"
       stroke-width="0.5"
       id="path2382" />
    <g
       fill="#DAE0F5"
       stroke-width="0.26458"
       aria-label="K"
       id="g2386">
      <path
         d="m 27.398,54.091 h 0.6096 v -1.3039 l 0.17498,-0.32173 0.18062,0.38382 0.58702,1.2418 h 0.6604 l -1.0668,-2.2634 1.0668,-1.8852 h -0.67169 l -0.93133,1.7498 v -1.7498 H 27.398 Z"
         id="path2384" />
    </g>
  </g>
  <g
     id="lp"
     class="notpressed" 
     transform="translate(-10.54976,-28.502)">
    <path
       d="m 36.333,28.753 h 9.4 c 0.1662,0 0.3,0.1338 0.3,0.3 v 14.4 c 0,0.1662 -0.1338,0.3 -0.3,0.3 h -9.4 c -0.1662,0 -0.3,-0.1338 -0.3,-0.3 v -14.4 c 0,-0.1662 0.1338,-0.3 0.3,-0.3 z"
       fill="#506477"
       stroke="#506477"
       stroke-width="0.5"
       id="path2389" />
    <g
       fill="#DAE0F5"
       stroke-width="0.26458"
       aria-label="P"
       id="g2393">
      <path
         d="m 40.003,38.327 h 0.60396 v -1.62 h 0.38947 q 0.2032,0 0.40076,-0.04515 0.19756,-0.04516 0.36124,-0.15804 0.16933,-0.11853 0.27658,-0.28787 0.10724,-0.17498 0.14676,-0.37253 0.04516,-0.19756 0.04516,-0.40076 0,-0.19756 -0.04516,-0.39511 -0.03951,-0.2032 -0.14676,-0.37253 -0.10724,-0.16933 -0.27658,-0.28787 -0.16369,-0.11853 -0.36124,-0.16369 -0.19756,-0.04516 -0.40076,-0.04516 h -0.99342 z m 0.60396,-2.1675 v -1.4337 h 0.38947 q 0.13547,0 0.25964,0.0508 0.12982,0.0508 0.21449,0.15804 0.08467,0.10724 0.11289,0.24271 0.03387,0.12982 0.03387,0.26529 0,0.13547 -0.03387,0.27093 -0.02822,0.12982 -0.11289,0.24271 -0.08467,0.10724 -0.21449,0.15804 -0.12418,0.04516 -0.25964,0.04516 z"
         id="path2391" />
    </g>
  </g>
  <g
     id="lw"
     class="notpressed" 
     transform="translate(-10.54976,-28.502)">
    <path
       d="m 36.334,44.781 c -0.1662,0 -0.30024,0.13353 -0.30024,0.29973 v 10.229 c 0,2.77 2.2302,4.9997 5.0002,4.9997 2.77,0 5.0002,-2.2297 5.0002,-4.9997 v -10.229 c 0,-0.1662 -0.13404,-0.29973 -0.30024,-0.29973 z"
       fill="#506477"
       stroke="#506477"
       stroke-width="0.5"
       id="path2396" />
    <g
       fill="#DAE0F5"
       stroke-width="0.26458"
       aria-label="W"
       id="g2400">
      <path
         d="m 40.218,54.091 h 0.52493 l 0.28787,-2.3876 0.28787,2.3876 h 0.52493 l 0.49107,-4.1487 h -0.60396 l -0.17498,3.3189 -0.25964,-2.1562 h -0.52493 l -0.25964,2.1562 -0.03387,-0.59267 -0.14111,-2.7263 h -0.6096 z"
         id="path2398" />
    </g>
  </g>
  <g
     id="lh"
     class="notpressed" 
     transform="translate(-10.54976,-28.502)">
    <path
       d="m 48.95,28.753 h 9.4 c 0.1662,0 0.3,0.1338 0.3,0.3 v 14.4 c 0,0.1662 -0.1338,0.3 -0.3,0.3 h -9.4 c -0.1662,0 -0.3,-0.1338 -0.3,-0.3 v -14.4 c 0,-0.1662 0.1338,-0.3 0.3,-0.3 z"
       fill="#506477"
       stroke="#506477"
       stroke-width="0.5"
       id="path2403" />
    <g
       fill="#DAE0F5"
       stroke-width="0.26458"
       aria-label="H"
       id="g2407">
      <path
         d="m 52.541,38.327 h 0.6096 V 36.47 h 0.99342 v 1.857 h 0.6096 v -4.1487 h -0.6096 v 1.7441 H 53.1506 V 34.1783 H 52.541 Z"
         id="path2405" />
    </g>
  </g>
  <g
     id="lr"
     class="notpressed" 
     transform="translate(-10.54976,-28.502)">
    <path
       d="m 48.95,44.781 c -0.1662,0 -0.30024,0.13353 -0.30024,0.29973 v 10.229 c 0,2.77 2.2302,4.9997 5.0002,4.9997 2.77,0 5.0002,-2.2297 5.0002,-4.9997 v -10.229 c 0,-0.1662 -0.13404,-0.29973 -0.30024,-0.29973 z"
       fill="#506477"
       stroke="#506477"
       stroke-width="0.5"
       id="path2410" />
    <g
       fill="#DAE0F5"
       stroke-width="0.26458"
       aria-label="R"
       id="g2414">
      <path
         d="m 52.541,54.091 h 0.6096 v -1.62 h 0.24836 l 0.8636,1.62 h 0.64347 l -0.88618,-1.6651 q 0.18627,-0.05644 0.34431,-0.17498 0.15804,-0.11853 0.25964,-0.28787 0.1016,-0.17498 0.13547,-0.36689 0.03951,-0.19191 0.03951,-0.38947 0,-0.19756 -0.03951,-0.38947 -0.03951,-0.19756 -0.14111,-0.36689 -0.1016,-0.17498 -0.25964,-0.29351 -0.15804,-0.11853 -0.3556,-0.16369 -0.19191,-0.0508 -0.38947,-0.0508 h -1.0724 z m 0.6096,-2.1675 v -1.4337 h 0.46284 q 0.12982,0 0.24836,0.05645 0.12418,0.0508 0.19756,0.16369 0.07902,0.10724 0.1016,0.23707 0.02822,0.12982 0.02822,0.25964 0,0.12982 -0.02822,0.25964 -0.02258,0.12982 -0.1016,0.24271 -0.07338,0.10724 -0.19756,0.16369 -0.11853,0.0508 -0.24836,0.0508 z"
         id="path2412" />
    </g>
  </g>
  <g
     id="star"
     class="notpressed" 
     transform="translate(-10.54976,-28.502)">
    <path
       d="m 61.567,28.752 c -0.1662,0 -0.30024,0.13404 -0.30024,0.30024 v 26.258 c 0,2.77 2.2302,4.9997 5.0002,4.9997 2.6209,0 4.757,-1.9966 4.9795,-4.5579 h 2.7202 c 0.16621,0 0.29972,-0.13404 0.29972,-0.30024 v -26.4 c 0,-0.1662 -0.13352,-0.29972 -0.29972,-0.29972 z"
       fill="#506477"
       stroke="#506477"
       stroke-width="0.5"
       id="path2417" />
    <g
       fill="#DAE0F5"
       stroke-width="0.26458"
       aria-label="*"
       id="g2421">
      <path
         d="m 67.312,44.562 0.45156,-0.68862 0.45156,0.68862 0.49107,-0.32173 -0.54751,-0.67733 0.82409,-0.22578 -0.18627,-0.52493 -0.77329,0.29351 0.04516,-0.85231 h -0.6096 l 0.04516,0.85231 -0.77329,-0.29351 -0.18627,0.52493 0.82409,0.22578 -0.54751,0.67733 z"
         id="path2419" />
    </g>
  </g>
  <g
     id="rf"
     class="notpressed" 
     transform="translate(-10.54976,-28.502)">
    <path
       d="m 75.596,28.753 h 9.4 c 0.1662,0 0.3,0.1338 0.3,0.3 v 14.4 c 0,0.1662 -0.1338,0.3 -0.3,0.3 h -9.4 c -0.1662,0 -0.3,-0.1338 -0.3,-0.3 v -14.4 c 0,-0.1662 0.1338,-0.3 0.3,-0.3 z"
       fill="#506477"
       stroke="#506477"
       stroke-width="0.5"
       id="path2424" />
    <g
       fill="#DAE0F5"
       stroke-width="0.26458"
       aria-label="F"
       id="g2428">
      <path
         d="m 79.339,38.327 h 0.6096 v -1.9248 h 1.1176 v -0.54751 h -1.1176 v -1.1289 h 1.4506 V 34.17828 H 79.339 Z"
         id="path2426" />
    </g>
  </g>
  <g
     id="rr"
     class="notpressed" 
     transform="translate(-10.54976,-28.502)">
    <path
       d="m 75.596,44.781 c -0.1662,0 -0.30024,0.13353 -0.30024,0.29973 v 10.229 c 0,2.77 2.2302,4.9997 5.0002,4.9997 2.77,0 5.0002,-2.2297 5.0002,-4.9997 v -10.229 c 0,-0.1662 -0.13404,-0.29973 -0.30024,-0.29973 z"
       fill="#506477"
       stroke="#506477"
       stroke-width="0.5"
       id="path2431" />
    <g
       fill="#DAE0F5"
       stroke-width="0.26458"
       aria-label="R"
       id="g2435">
      <path
         d="m 79.187,54.091 h 0.6096 v -1.62 h 0.24836 l 0.8636,1.62 h 0.64347 l -0.88618,-1.6651 q 0.18627,-0.05644 0.34431,-0.17498 0.15804,-0.11853 0.25964,-0.28787 0.1016,-0.17498 0.13547,-0.36689 0.03951,-0.19191 0.03951,-0.38947 0,-0.19756 -0.03951,-0.38947 -0.03951,-0.19756 -0.14111,-0.36689 -0.1016,-0.17498 -0.25964,-0.29351 -0.15804,-0.11853 -0.3556,-0.16369 -0.19191,-0.0508 -0.38947,-0.0508 h -1.0724 z m 0.6096,-2.1675 v -1.4337 h 0.46284 q 0.12982,0 0.24836,0.05644 0.12418,0.0508 0.19756,0.16369 0.07902,0.10724 0.1016,0.23707 0.02822,0.12982 0.02822,0.25964 0,0.12982 -0.02822,0.25964 -0.02258,0.12982 -0.1016,0.24271 -0.07338,0.10724 -0.19756,0.16369 -0.11853,0.0508 -0.24836,0.0508 z"
         id="path2433" />
    </g>
  </g>
  <g
     id="rp"
     class="notpressed" 
     transform="translate(-10.54976,-28.502)">
    <path
       d="m 88.212,28.753 h 9.4 c 0.1662,0 0.3,0.1338 0.3,0.3 v 14.4 c 0,0.1662 -0.1338,0.3 -0.3,0.3 h -9.4 c -0.1662,0 -0.3,-0.1338 -0.3,-0.3 v -14.4 c 0,-0.1662 0.1338,-0.3 0.3,-0.3 z"
       fill="#506477"
       stroke="#506477"
       stroke-width="0.5"
       id="path2438" />
    <g
       fill="#DAE0F5"
       stroke-width="0.26458"
       aria-label="P"
       id="g2442">
      <path
         d="m 91.882,38.327 h 0.60396 v -1.62 h 0.38947 q 0.2032,0 0.40076,-0.04515 0.19756,-0.04516 0.36124,-0.15804 0.16933,-0.11853 0.27658,-0.28787 0.10724,-0.17498 0.14676,-0.37253 0.04516,-0.19756 0.04516,-0.40076 0,-0.19756 -0.04516,-0.39511 -0.03951,-0.2032 -0.14676,-0.37253 -0.10724,-0.16934 -0.27658,-0.28787 -0.16369,-0.11853 -0.36124,-0.16369 -0.19756,-0.04516 -0.40076,-0.04516 h -0.99342 z m 0.60396,-2.1675 v -1.4337 h 0.38947 q 0.13547,0 0.25964,0.0508 0.12982,0.0508 0.21449,0.15804 0.08467,0.10724 0.11289,0.24271 0.03387,0.12982 0.03387,0.26529 0,0.13547 -0.03387,0.27093 -0.02822,0.12982 -0.11289,0.24271 -0.08467,0.10724 -0.21449,0.15804 -0.12418,0.04516 -0.25964,0.04516 z"
         id="path2440" />
    </g>
  </g>
  <g
     id="rb"
     class="notpressed" 
     transform="translate(-10.54976,-28.502)">
    <path
       d="m 88.213,44.781 c -0.1662,0 -0.30024,0.13353 -0.30024,0.29973 v 10.229 c 0,2.77 2.2302,4.9997 5.0002,4.9997 2.77,0 5.0002,-2.2297 5.0002,-4.9997 v -10.229 c 0,-0.1662 -0.13404,-0.29973 -0.30024,-0.29973 z"
       fill="#506477"
       stroke="#506477"
       stroke-width="0.5"
       id="path2445" />
    <g
       fill="#DAE0F5"
       stroke-width="0.26458"
       aria-label="B"
       id="g2449">
      <path
         d="m 91.803,54.091 h 1.0386 q 0.19756,0 0.38947,-0.03951 0.19756,-0.03951 0.36689,-0.14111 0.16933,-0.10724 0.28787,-0.26529 0.12418,-0.16369 0.16933,-0.3556 0.0508,-0.19756 0.0508,-0.39511 0,-0.2032 -0.06209,-0.39511 -0.05644,-0.19756 -0.2032,-0.34431 -0.14676,-0.14676 -0.33302,-0.22578 0.14676,-0.09031 0.254,-0.22578 0.10724,-0.13547 0.14676,-0.29916 0.04516,-0.16933 0.04516,-0.33867 0,-0.18062 -0.04516,-0.3556 -0.03951,-0.17498 -0.14111,-0.32738 -0.09596,-0.1524 -0.24836,-0.254 -0.14676,-0.10724 -0.32173,-0.14676 -0.17498,-0.03951 -0.3556,-0.03951 h -1.0386 z m 1.0386,-2.4215 h -0.42898 v -1.1797 h 0.42898 q 0.14676,0 0.27658,0.07902 0.12982,0.07338 0.17498,0.22013 0.0508,0.14111 0.0508,0.28787 0,0.10724 -0.02822,0.22013 -0.02258,0.10724 -0.09031,0.19756 -0.06773,0.09031 -0.17498,0.13547 -0.1016,0.03951 -0.20884,0.03951 z m 0,1.874 h -0.42898 v -1.3264 h 0.42898 q 0.12982,0 0.25964,0.03951 0.12982,0.03951 0.22578,0.14111 0.09596,0.09596 0.12982,0.22578 0.03951,0.12982 0.03951,0.25964 0,0.13547 -0.03951,0.26529 -0.03387,0.12418 -0.12982,0.22013 -0.09596,0.09596 -0.22578,0.13547 -0.12982,0.03951 -0.25964,0.03951 z"
         id="path2447" />
    </g>
  </g>
  <g
     id="rl"
     class="notpressed" 
     transform="translate(-10.54976,-28.502)">
    <path
       d="m 100.83,28.753 h 9.4 c 0.1662,0 0.3,0.1338 0.3,0.3 v 14.4 c 0,0.1662 -0.1338,0.3 -0.3,0.3 h -9.4 c -0.1662,0 -0.3,-0.1338 -0.3,-0.3 v -14.4 c 0,-0.1662 0.1338,-0.3 0.3,-0.3 z"
       fill="#506477"
       stroke="#506477"
       stroke-width="0.5"
       id="path2452" />
    <g
       fill="#DAE0F5"
       stroke-width="0.26458"
       aria-label="L"
       id="g2456">
      <path
         d="m 104.57,38.327 h 2.1054 v -0.54751 h -1.4958 v -3.6012 H 104.57 Z"
         id="path2454" />
    </g>
  </g>
  <g
     id="rg"
     class="notpressed" 
     transform="translate(-10.54976,-28.502)">
    <path
       d="m 100.83,44.781 c -0.1662,0 -0.30024,0.13353 -0.30024,0.29973 v 10.229 c 0,2.77 2.2302,4.9997 5.0002,4.9997 2.77,0 5.0002,-2.2297 5.0002,-4.9997 v -10.229 c 0,-0.1662 -0.13404,-0.29973 -0.30024,-0.29973 z"
       fill="#506477"
       stroke="#506477"
       stroke-width="0.5"
       id="path2459" />
    <g
       fill="#DAE0F5"
       stroke-width="0.26458"
       aria-label="G"
       id="g2463">
      <path
         d="m 105.28,54.136 q 0.19191,0 0.36688,-0.08467 0.18063,-0.08467 0.28223,-0.24836 0.10724,-0.16369 0.15804,-0.34996 v 0.63782 h 0.54751 v -2.2973 h -1.1063 v 0.54751 h 0.49671 V 52.945 q 0,0.11289 -0.0226,0.23142 -0.0226,0.11289 -0.0847,0.21449 -0.0621,0.09596 -0.16934,0.14676 -0.1016,0.0508 -0.22013,0.0508 -0.11853,0 -0.23142,-0.04516 -0.11289,-0.04516 -0.18627,-0.14111 -0.0734,-0.1016 -0.1016,-0.22013 -0.0226,-0.11853 -0.0226,-0.23707 v -1.857 q 0,-0.11853 0.0226,-0.23142 0.0282,-0.11853 0.096,-0.21449 0.0734,-0.1016 0.18062,-0.14676 0.11289,-0.0508 0.23142,-0.0508 0.13547,0 0.25965,0.05644 0.12982,0.05644 0.19191,0.18627 0.0677,0.12418 0.0677,0.25964 h 0.6096 q 0,-0.22013 -0.079,-0.42333 -0.079,-0.20884 -0.24271,-0.3556 -0.16369,-0.1524 -0.37818,-0.20884 -0.21449,-0.06209 -0.42898,-0.06209 -0.18626,0 -0.37253,0.04516 -0.18627,0.03951 -0.33867,0.1524 -0.1524,0.11289 -0.254,0.27658 -0.096,0.15804 -0.13546,0.34431 -0.0395,0.18627 -0.0395,0.37253 v 1.857 q 0,0.16933 0.0226,0.33867 0.0282,0.16369 0.0903,0.32173 0.0677,0.15804 0.18063,0.28787 0.11853,0.12418 0.27657,0.18627 0.16369,0.05645 0.33303,0.05645 z"
         id="path2461" />
    </g>
  </g>
  <g
     id="rt"
     class="notpressed" 
     transform="translate(-10.54976,-28.502)">
    <path
       d="m 113.45,28.753 h 9.4 c 0.1662,0 0.3,0.1338 0.3,0.3 v 14.4 c 0,0.1662 -0.1338,0.3 -0.3,0.3 h -9.4 c -0.1662,0 -0.3,-0.1338 -0.3,-0.3 v -14.4 c 0,-0.1662 0.1338,-0.3 0.3,-0.3 z"
       fill="#506477"
       stroke="#506477"
       stroke-width="0.5"
       id="path2466" />
    <g
       fill="#DAE0F5"
       stroke-width="0.26458"
       aria-label="T"
       id="g2470">
      <path
         d="m 117.84,38.327 h 0.6096 v -3.6012 h 0.86925 v -0.54751 h -2.3481 v 0.54751 h 0.86924 z"
         id="path2468" />
    </g>
  </g>
  <g
     id="rs"
     class="notpressed" 
     transform="translate(-10.54976,-28.502)">
    <path
       d="m 113.45,44.781 c -0.1662,0 -0.30024,0.13353 -0.30024,0.29973 v 10.229 c 0,2.77 2.2302,4.9997 5.0002,4.9997 2.77,0 5.0002,-2.2297 5.0002,-4.9997 v -10.229 c 0,-0.1662 -0.13404,-0.29973 -0.30024,-0.29973 z"
       fill="#506477"
       stroke="#506477"
       stroke-width="0.5"
       id="path2473" />
    <g
       fill="#DAE0F5"
       stroke-width="0.26458"
       aria-label="S"
       id="g2477">
      <path
         d="m 118.13,54.136 q 0.23142,0 0.45155,-0.06773 0.22014,-0.06773 0.38383,-0.23142 0.16933,-0.16369 0.24835,-0.37818 0.0847,-0.22013 0.0847,-0.44591 0,-0.22013 -0.0903,-0.42898 -0.0847,-0.20884 -0.24271,-0.36689 -0.1524,-0.15804 -0.34432,-0.27093 -0.18626,-0.11289 -0.37817,-0.21449 h -0.006 q -0.1524,-0.07338 -0.29351,-0.16369 -0.13547,-0.09595 -0.22013,-0.24271 -0.0847,-0.1524 -0.0847,-0.31609 0,-0.14111 0.0565,-0.27658 0.0564,-0.14111 0.18062,-0.21449 0.12982,-0.07338 0.27658,-0.07338 0.13546,0 0.254,0.06209 0.12417,0.06209 0.18062,0.18627 0.0621,0.12418 0.0621,0.25964 h 0.6096 q 0,-0.21449 -0.079,-0.41769 -0.0734,-0.20884 -0.23142,-0.36124 -0.15804,-0.1524 -0.37253,-0.21449 -0.20885,-0.06209 -0.42333,-0.06209 -0.22578,0 -0.44027,0.06773 -0.21449,0.06773 -0.37253,0.23707 -0.15805,0.16369 -0.23143,0.37818 -0.0734,0.21449 -0.0734,0.44027 0,0.16933 0.0508,0.33867 0.0508,0.16369 0.1524,0.3048 0.1016,0.14111 0.23142,0.254 0.13547,0.11289 0.28222,0.2032 0.14676,0.08467 0.29916,0.16369 0.15804,0.07338 0.3048,0.16933 0.14675,0.09031 0.23706,0.24271 0.096,0.1524 0.096,0.32173 0,0.1524 -0.0677,0.29351 -0.0621,0.14111 -0.2032,0.20884 -0.13546,0.06773 -0.28786,0.06773 -0.13547,0 -0.27094,-0.05644 -0.12982,-0.05645 -0.20319,-0.18062 -0.0677,-0.12982 -0.0677,-0.26529 h -0.6096 q 0,0.22013 0.0847,0.42898 0.0847,0.2032 0.24835,0.3556 0.16934,0.14676 0.38383,0.20884 0.21448,0.05645 0.43462,0.05645 z"
         id="path2475" />
    </g>
  </g>
  <g
     id="rd"
     class="notpressed" 
     transform="translate(-10.54976,-28.502)">
    <path
       d="m 124.47,28.753 h 12.4 c 0.1662,0 0.3,0.1338 0.3,0.3 v 14.4 c 0,0.1662 -0.1338,0.3 -0.3,0.3 h -12.4 c -0.1662,0 -0.3,-0.1338 -0.3,-0.3 v -14.4 c 0,-0.1662 0.1338,-0.3 0.3,-0.3 z"
       fill="#506477"
       stroke="#506477"
       stroke-width="0.5"
       id="path2480" />
    <g
       fill="#DAE0F5"
       stroke-width="0.26458"
       aria-label="D"
       id="g2484">
      <path
         d="m 129.57,38.327 h 0.95391 q 0.2032,0 0.4064,-0.03951 0.2032,-0.04516 0.37818,-0.15804 0.18062,-0.11289 0.29915,-0.28222 0.12418,-0.16933 0.16933,-0.37253 0.0508,-0.2032 0.0508,-0.4064 v -1.6312 q 0,-0.2032 -0.0508,-0.4064 -0.0452,-0.2032 -0.16933,-0.37253 -0.11853,-0.17498 -0.29915,-0.28222 -0.17498,-0.11289 -0.37818,-0.1524 -0.2032,-0.04516 -0.4064,-0.04516 H 129.57 Z m 0.95391,-0.54751 h -0.34431 v -3.0536 h 0.34431 q 0.14111,0 0.27658,0.04516 0.14111,0.03951 0.23706,0.14676 0.1016,0.1016 0.14111,0.24271 0.0395,0.13547 0.0395,0.27658 v 1.6312 q 0,0.14111 -0.0395,0.28222 -0.0395,0.13547 -0.14111,0.24271 -0.0959,0.1016 -0.23706,0.14676 -0.13547,0.03951 -0.27658,0.03951 z"
         id="path2482" />
    </g>
  </g>
  <g
     id="rz"
     class="notpressed" 
     transform="translate(-10.54976,-28.502)">
    <path
       d="m 124.47,44.781 c -0.1662,0 -0.29972,0.13404 -0.29972,0.30024 v 10.4 c 0,0.1662 0.13352,0.29972 0.29972,0.29972 h 2.7218 c 0.23584,2.5475 2.3668,4.5289 4.978,4.5289 2.6937,0 4.8768,-2.1088 4.995,-4.7723 0.003,-0.0183 0.005,-0.037 0.005,-0.0563 v -10.4 c 0,-0.0727 -0.0255,-0.13939 -0.0682,-0.19121 -0.006,-0.007 -0.0125,-0.0146 -0.0191,-0.0212 -0.0203,-0.0204 -0.0437,-0.0378 -0.0692,-0.0517 -0.0147,-0.008 -0.0305,-0.0147 -0.0465,-0.0202 -0.002,-7.9e-4 -0.005,-0.002 -0.007,-0.003 -1.5e-4,-5e-5 -2.6e-4,5e-5 -5.3e-4,0 -0.0281,-0.009 -0.0579,-0.0134 -0.0889,-0.0134 z"
       fill="#506477"
       stroke="#506477"
       stroke-width="0.5"
       id="path2487" />
    <g
       fill="#DAE0F5"
       stroke-width="0.26458"
       aria-label="Z"
       id="g2491">
      <path
         d="m 129.57,54.091 h 2.2126 v -0.54751 h -1.5127 l 1.5127,-3.0536 V 49.94238 H 129.57 v 0.54751 h 1.5127 l -1.5127,3.0536 z"
         id="path2489" />
    </g>
  </g>
  <g
     id="la"
     class="notpressed" 
     transform="translate(-10.54976,-28.502)">
    <path
       d="m 38.98,68.748 c -0.1662,0 -0.30024,0.13353 -0.30024,0.29973 v 10.229 c 0,2.77 2.2302,4.9997 5.0002,4.9997 2.77,0 5.0002,-2.2297 5.0002,-4.9997 v -10.229 c 0,-0.1662 -0.13404,-0.29973 -0.30024,-0.29973 z"
       fill="#506477"
       stroke="#506477"
       stroke-width="0.5"
       id="path2494" />
    <g
       fill="#DAE0F5"
       stroke-width="0.26458"
       aria-label="A"
       id="g2498">
      <path
         d="m 42.463,78.057 h 0.62653 l 0.17498,-0.94827 h 0.82409 l 0.18062,0.94827 h 0.62089 l -0.8636,-4.1487 H 43.3266 Z m 0.90311,-1.4958 0.23707,-1.27 q 0.01693,-0.09596 0.03387,-0.19191 0.02258,-0.1016 0.03951,-0.2032 0.01693,0.1016 0.03387,0.2032 0.02258,0.09596 0.03951,0.19191 l 0.23707,1.27 z"
         id="path2496" />
    </g>
  </g>
  <g
     id="lo"
     class="notpressed" 
     transform="translate(-10.54976,-28.502)">
    <path
       d="m 51.596,68.748 c -0.1662,0 -0.30024,0.13353 -0.30024,0.29973 v 10.229 c 0,2.77 2.2302,4.9997 5.0002,4.9997 2.77,0 5.0002,-2.2297 5.0002,-4.9997 v -10.229 c 0,-0.1662 -0.13404,-0.29973 -0.30024,-0.29973 z"
       fill="#506477"
       stroke="#506477"
       stroke-width="0.5"
       id="path2501" />
    <g
       fill="#DAE0F5"
       stroke-width="0.26458"
       aria-label="O"
       id="g2505">
      <path
         d="m 56.293,78.102 q 0.19191,0 0.37253,-0.04516 0.18627,-0.04515 0.33867,-0.1524 0.15804,-0.11289 0.25964,-0.27093 0.1016,-0.16369 0.14111,-0.34996 0.03951,-0.18627 0.03951,-0.37253 v -1.857 q 0,-0.19191 -0.03951,-0.37253 -0.03951,-0.18627 -0.14111,-0.34431 -0.1016,-0.16369 -0.25964,-0.27658 -0.1524,-0.11289 -0.33867,-0.1524 -0.18062,-0.04516 -0.37253,-0.04516 -0.18627,0 -0.37253,0.04516 -0.18627,0.03951 -0.34431,0.1524 -0.1524,0.11289 -0.254,0.27658 -0.1016,0.15804 -0.14111,0.34431 -0.03951,0.18062 -0.03951,0.37253 v 1.857 q 0,0.18627 0.03951,0.37253 0.03951,0.18627 0.14111,0.34996 0.1016,0.15804 0.254,0.27093 0.15804,0.10724 0.34431,0.1524 0.18627,0.04516 0.37253,0.04516 z m 0,-0.54751 q -0.11853,0 -0.23142,-0.04516 -0.11289,-0.04516 -0.18627,-0.14111 -0.07338,-0.1016 -0.1016,-0.22013 -0.02258,-0.11853 -0.02258,-0.23707 v -1.857 q 0,-0.11853 0.02258,-0.23707 0.02822,-0.11853 0.1016,-0.21449 0.07338,-0.1016 0.18627,-0.14676 0.11289,-0.04516 0.23142,-0.04516 0.11853,0 0.23142,0.04516 0.11289,0.04515 0.18627,0.14676 0.07338,0.09596 0.09595,0.21449 0.02822,0.11853 0.02822,0.23707 v 1.857 q 0,0.11853 -0.02822,0.23707 -0.02258,0.11853 -0.09595,0.22013 -0.07338,0.09596 -0.18627,0.14111 -0.11289,0.04516 -0.23142,0.04516 z"
         id="path2503" />
    </g>
  </g>
  <g
     id="re"
     class="notpressed" 
     transform="translate(-10.54976,-28.502)">
    <path
       d="m 72.95,68.748 c -0.1662,0 -0.30024,0.13353 -0.30024,0.29973 v 10.229 c 0,2.77 2.2302,4.9997 5.0002,4.9997 2.77,0 5.0002,-2.2297 5.0002,-4.9997 v -10.229 c 0,-0.1662 -0.13404,-0.29973 -0.30024,-0.29973 z"
       fill="#506477"
       stroke="#506477"
       stroke-width="0.5"
       id="path2508" />
    <g
       fill="#DAE0F5"
       stroke-width="0.26458"
       aria-label="E"
       id="g2512">
      <path
         d="m 76.693,78.057 h 2.0602 v -0.54751 h -1.4506 v -1.3772 h 1.1176 v -0.54751 h -1.1176 v -1.1289 h 1.4506 V 73.90837 H 76.693 Z"
         id="path2510" />
    </g>
  </g>
  <g
     id="ru"
     class="notpressed" 
     transform="translate(-10.54976,-28.502)">
    <path
       d="m 85.567,68.748 c -0.1662,0 -0.30024,0.13353 -0.30024,0.29973 v 10.229 c 0,2.77 2.2302,4.9997 5.0002,4.9997 2.77,0 5.0002,-2.2297 5.0002,-4.9997 v -10.229 c 0,-0.1662 -0.13404,-0.29973 -0.30024,-0.29973 z"
       fill="#506477"
       stroke="#506477"
       stroke-width="0.5"
       id="path2515" />
    <g
       fill="#DAE0F5"
       stroke-width="0.26458"
       aria-label="U"
       id="g2519">
      <path
         d="m 90.264,78.102 q 0.18627,0 0.36689,-0.04515 0.18062,-0.04516 0.32738,-0.15804 0.1524,-0.11853 0.24271,-0.27658 0.09596,-0.16369 0.12982,-0.34431 0.03951,-0.18062 0.03951,-0.36689 v -3.0028 h -0.6096 v 3.0028 q 0,0.11289 -0.02258,0.23142 -0.02258,0.11289 -0.08467,0.21449 -0.06209,0.09596 -0.16933,0.14676 -0.1016,0.0508 -0.22013,0.0508 -0.11289,0 -0.22013,-0.0508 -0.10724,-0.0508 -0.16933,-0.14676 -0.06209,-0.1016 -0.08467,-0.21449 -0.02258,-0.11853 -0.02258,-0.23142 v -3.0028 h -0.6096 v 3.0028 q 0,0.18627 0.03387,0.36689 0.03951,0.18062 0.12982,0.34431 0.09596,0.15804 0.24271,0.27658 0.1524,0.11289 0.33302,0.15804 0.18062,0.04515 0.36689,0.04515 z"
         id="path2517" />
    </g>
  </g>
  <g
     id="num"
     class="notpressed" 
     transform="translate(-10.54976,-28.501)">
    <path
       d="m 11.099955,28.752 h 9.4 c 0.1662,0 0.3,0.1338 0.3,0.3 v 14.4 c 0,0.1662 -0.1338,0.3 -0.3,0.3 h -9.4 c -0.1662,0 -0.3,-0.1338 -0.3,-0.3 v -14.4 c 0,-0.1662 0.1338,-0.3 0.3,-0.3 z"
       fill="#506477"
       stroke="#506477"
       stroke-width="0.5"
       id="path2375-4" />
    <g
       fill="#DAE0F5"
       stroke-width="0.26458"
       aria-label="#"
       id="g2526"
       transform="translate(-58.21131,11.87272)">
      <path
         d="m 73.145,26.699 h 0.52493 v -1.1176 h 0.65476 v 1.1176 h 0.52493 v -1.1176 h 0.49107 v -0.54751 h -0.49107 v -1.3095 h 0.49107 v -0.54751 h -0.49107 v -1.1176 h -0.52493 v 1.1176 h -0.65476 v -1.1176 H 73.145 v 1.1176 h -0.49107 v 0.54751 H 73.145 v 1.3095 H 72.65393 V 25.5814 H 73.145 Z m 0.52493,-1.6651 v -1.3095 h 0.65476 v 1.3095 z"
         id="path2524" />
    </g>
  </g>
</svg>
